<?xml version="1.0" encoding="utf-8"?>
<!-- Generator: Adobe Illustrator 25.2.3, SVG Export Plug-In . SVG Version: 6.00 Build 0)  -->
<svg version="1.1" id="Layer_1" xmlns="http://www.w3.org/2000/svg" xmlns:xlink="http://www.w3.org/1999/xlink" x="0px" y="0px"
	 viewBox="0 0 100 100" style="enable-background:new 0 0 100 100;" xml:space="preserve">
<style type="text/css">
	.st0{fill:#0D6EFD;}
</style>
<path class="st0" d="M50,0C22.4,0,0,22.4,0,50s22.4,50,50,50s50-22.4,50-50S77.6,0,50,0z M75.1,84.2c-6.5,0-10.8-3.7-12.8-11.2
	c-1-3.6-1.4-9.8-1.4-18.8v-0.8L40.7,67.6c-2.2,11.1-6.8,16.6-14,16.6c-4.1,0-6.1-2.2-6.1-6.7c0-6.1,5.4-13,16.2-20.8
	c0.1-1.8,0.2-3.3,0.2-4.5c0-4.2-0.7-8.3-2-12.4c-2-6-5-9-9-9c-5.4,0-8.3,4-8.7,12.1H15c0-14.2,4.2-21.3,12.6-21.3
	c6.5,0,10.8,3.9,12.8,11.6c0.9,3.7,1.4,10,1.4,19.1v1.5l19.8-13.7c2-12.4,6.7-18.6,14.2-18.6c4.1,0,6.1,2.2,6.1,6.7
	c0,6.1-5.4,13.3-16.3,21.7c-0.1,1.8-0.1,3.3-0.1,4.5c0,4.1,0.7,8.1,2,12c2,5.7,5,8.6,9,8.6c5.4,0,8.3-4,8.7-12.1h2.3
	C87.7,77.1,83.5,84.2,75.1,84.2z"/>
</svg>
