<?xml version="1.0" encoding="utf-8"?>
<!-- Generator: Adobe Illustrator 25.2.3, SVG Export Plug-In . SVG Version: 6.00 Build 0)  -->
<svg version="1.1" id="Layer_1" xmlns="http://www.w3.org/2000/svg" xmlns:xlink="http://www.w3.org/1999/xlink" x="0px" y="0px"
	 viewBox="0 0 240 155" width="240" height="155" style="enable-background:new 0 0 240 150;" xml:space="preserve">
<style type="text/css">
	.st0{fill:#0D6EFD;}
</style>
		<path class="st0" d="M 0 0 L 0.106 155 L 240 154.529 L 239.666 0.25 L 0 0 Z M 149.704 125.714 
			  C 140.384 125.714 134.22 120.404 131.353 109.639 C 129.919 104.472 129.345 95.573 129.345 82.655 
			  L 129.345 81.506 L 100.386 101.889 C 97.232 117.82 90.637 125.714 80.315 125.714 
			  C 74.438 125.714 71.571 122.557 71.571 116.098 C 71.571 107.343 79.312 97.438 94.795 86.244 
			  C 94.938 83.66 95.082 81.506 95.082 79.785 C 95.082 73.756 94.079 67.871 92.215 61.986 
			  C 89.347 53.374 85.046 49.068 79.312 49.068 C 71.571 49.068 67.412 54.809 66.84 66.436 
			  L 63.542 66.436 C 63.542 46.054 69.563 35.864 81.606 35.864 C 90.924 35.864 97.089 41.462 99.957 52.513 
			  C 101.246 57.824 101.963 66.866 101.963 79.928 L 101.963 82.08 L 130.349 62.417 
			  C 133.217 44.619 139.954 35.72 150.706 35.72 C 156.584 35.72 159.452 38.877 159.452 45.337 
			  C 159.452 54.092 151.71 64.426 136.084 76.483 C 135.94 79.067 135.94 81.219 135.94 82.942 C 135.94 88.827 136.944 94.568 138.808 100.166 
			  C 141.675 108.348 145.976 112.51 151.71 112.51 C 159.452 112.51 163.609 106.768 164.183 95.142 L 167.48 95.142 
			  C 167.767 115.524 161.745 125.714 149.704 125.714 Z" />
</svg>